<svg id="visual" viewBox="0 0 900 80" width="900" height="80" xmlns="http://www.w3.org/2000/svg" xmlns:xlink="http://www.w3.org/1999/xlink" version="1.1"><path d="M0 34L30 31.7C60 29.3 120 24.7 180 24.8C240 25 300 30 360 39.5C420 49 480 63 540 63.3C600 63.7 660 50.3 720 41.5C780 32.7 840 28.3 870 26.2L900 24L900 81L870 81C840 81 780 81 720 81C660 81 600 81 540 81C480 81 420 81 360 81C300 81 240 81 180 81C120 81 60 81 30 81L0 81Z" fill="#f3f4f5" stroke-linecap="round" stroke-linejoin="miter"></path></svg>