<svg id="visual" viewBox="0 0 900 600" width="900" height="600" xmlns="http://www.w3.org/2000/svg" xmlns:xlink="http://www.w3.org/1999/xlink" version="1.1"><g transform="translate(435.76313036830004 276.92479119628416)"><path d="M183.3 -187.1C244.8 -166.7 307.1 -115.9 328.3 -49.8C349.5 16.3 329.8 97.6 285.1 154.8C240.4 212 170.8 245.1 108.3 245.2C45.7 245.3 -9.8 212.4 -77.3 195.3C-144.9 178.2 -224.4 176.8 -268.2 137.3C-312 97.7 -320 20 -292.1 -36.5C-264.3 -92.9 -200.6 -128.1 -145.9 -149.7C-91.3 -171.3 -45.6 -179.4 7.6 -188.5C60.9 -197.5 121.7 -207.5 183.3 -187.1" fill="#BB004B"></path></g></svg>