<?xml version="1.0" encoding="UTF-8" standalone="no"?> <!-- Created with Vectornator (http://vectornator.io/) --><!DOCTYPE svg PUBLIC "-//W3C//DTD SVG 1.1//EN" "http://www.w3.org/Graphics/SVG/1.1/DTD/svg11.dtd">
<svg height="100%" stroke-miterlimit="10" style="fill-rule:nonzero;clip-rule:evenodd;stroke-linecap:round;stroke-linejoin:round;" version="1.1" viewBox="0 0 1024 1024" width="100%" xml:space="preserve" xmlns="http://www.w3.org/2000/svg" xmlns:vectornator="http://vectornator.io" xmlns:xlink="http://www.w3.org/1999/xlink">
<metadata>
<vectornator:setting key="VNDimensionsVisible" value="true"/>
<vectornator:setting key="VNSnapToGuides" value="1"/>
<vectornator:setting key="WDDisplayWhiteBackground" value="0"/>
<vectornator:setting key="WDDynamicGuides" value="0"/>
<vectornator:setting key="WDGuidesVisible" value="true"/>
<vectornator:setting key="WDRulersVisible" value="1"/>
<vectornator:setting key="WDSnapToEdges" value="0"/>
<vectornator:setting key="WDSnapToGrid" value="0"/>
<vectornator:setting key="WDSnapToPoints" value="0"/>
<vectornator:setting key="WDUnits" value="Pixels"/>
</metadata>
<defs>
<clipPath id="TextBounds">
<rect height="491.471" width="526.995" x="440.671" y="391.628"/>
</clipPath>
</defs>
<g id="layer" vectornator:layerName="layer">
<path d="M65.3706 0L958.629 0C994.733 0 1024 28.6146 1024 63.9126L1024 960.087C1024 995.385 994.733 1024 958.629 1024L65.3706 1024C29.2674 1024 0 995.385 0 960.087L0 63.9126C0 28.6146 29.2674 0 65.3706 0Z" fill="#b3b3b3" fill-rule="evenodd" opacity="1" stroke="none"/>
<path d="M67.8671 0L956.133 0C993.615 0 1024 29.3166 1024 65.4804L1024 879.079C1024 915.243 993.615 944.56 956.133 944.56L67.8671 944.56C30.3851 944.56 0 915.243 0 879.079L0 65.4804C0 29.3166 30.3851 0 67.8671 0Z" fill="#dddddd" fill-rule="evenodd" opacity="1" stroke="none"/>
<path clip-path="url(#TextBounds)" d="M854.977 823.097C875.982 823.097 891.735 817.913 902.238 807.544C912.74 797.176 917.991 781.623 917.991 760.886L917.991 515.851C917.991 495.114 912.74 479.561 902.238 469.192C891.735 458.823 875.982 453.639 854.977 453.639L680.583 453.639C672.689 453.639 665.23 454.375 658.207 455.846C651.183 457.318 644.493 459.793 638.138 463.272C631.783 466.75 625.863 471.366 620.378 477.119L502.175 599.937C497.76 604.352 494.148 608.7 491.338 612.982C488.529 617.263 486.455 621.444 485.117 625.524C483.779 629.605 483.11 633.786 483.11 638.067C483.11 642.215 483.779 646.362 485.117 650.51C486.455 654.657 488.529 658.838 491.338 663.052C494.148 667.267 497.76 671.648 502.175 676.197L620.578 798.413C626.064 804.166 631.984 808.849 638.339 812.461C644.694 816.073 651.383 818.716 658.407 820.388C665.431 822.061 672.89 822.897 680.783 822.897L854.977 823.097ZM854.575 790.787L680.181 790.787C672.555 790.787 666.067 789.717 660.715 787.576C655.364 785.436 650.079 781.69 644.861 776.338L527.261 654.925C523.916 651.446 521.608 648.402 520.337 645.793C519.066 643.185 518.43 640.609 518.43 638.067C518.43 633.117 521.374 627.431 527.261 621.009L644.66 499.194C649.878 493.843 655.196 490.297 660.615 488.558C666.033 486.819 672.489 485.949 679.981 485.949L854.575 485.949C864.61 485.949 872.302 488.591 877.654 493.876C883.006 499.161 885.681 507.021 885.681 517.456L885.681 759.28C885.681 769.716 883.006 777.576 877.654 782.86C872.302 788.145 864.61 790.787 854.575 790.787ZM668.943 723.157C673.626 723.157 677.506 721.485 680.583 718.14L737.376 661.146L794.571 718.14C797.782 721.485 801.595 723.157 806.01 723.157C810.425 723.157 814.205 721.552 817.349 718.341C820.493 715.13 822.065 711.317 822.065 706.902C822.065 702.487 820.459 698.674 817.248 695.463L760.254 638.469L817.449 581.073C820.66 577.862 822.265 574.116 822.265 569.835C822.265 565.42 820.693 561.64 817.549 558.496C814.405 555.352 810.626 553.78 806.211 553.78C802.063 553.78 798.384 555.452 795.173 558.797L737.376 615.992L680.181 558.998C677.238 555.787 673.492 554.181 668.943 554.181C664.528 554.181 660.749 555.72 657.604 558.797C654.46 561.874 652.888 565.62 652.888 570.035C652.888 574.45 654.494 578.197 657.705 581.274L714.699 638.469L657.705 695.663C654.494 698.74 652.888 702.487 652.888 706.902C652.888 711.317 654.46 715.13 657.604 718.341C660.749 721.552 664.528 723.157 668.943 723.157Z" fill="#b3b3b3" fill-rule="evenodd" opacity="1" stroke="none"/>
</g>
</svg>
